<svg xmlns="http://www.w3.org/2000/svg" width="1000" height="840" viewBox="0 0 1000 840"><rect width="1000" height="840" fill="#0b202c"/><text x="60" y="42" fill="white" font-family="sans-serif" font-size="23">Manga · contraste de perímetros</text><text x="60" y="69" fill="#b8c9cb" font-family="sans-serif" font-size="14">Norte arriba · AEQD métrica · IoU 0.9399</text><polygon points="733.54,463.64 720.98,444.99 718.62,437.48 720.04,430.44 722.40,424.57 728.07,414.00 728.31,408.37 726.18,401.56 722.17,395.23 722.40,389.12 727.13,384.89 736.11,387.71 743.43,390.29 752.41,395.69 765.17,395.93 777.22,397.57 788.56,397.57 806.28,401.56 820.22,402.26 840.52,407.83 853.55,414.83 858.04,418.41 861.53,428.04 863.61,429.41 866.25,432.56 867.96,435.40 867.80,440.87 869.83,441.30 871.56,444.11 871.74,447.52 869.88,451.80 868.63,454.62 867.94,457.43 868.07,459.70 867.76,462.72 866.09,464.29 864.06,465.01 863.47,466.85 861.57,468.87 859.18,469.72 856.60,469.48 853.94,470.07 852.08,473.75 850.88,474.90 848.06,476.85 845.74,478.31 842.83,478.97 842.97,481.11 846.04,482.87 849.21,483.56 850.24,485.89 850.19,489.02 851.74,490.38 853.79,490.03 855.61,492.83 856.44,494.78 856.22,496.73 855.41,498.56 856.62,499.14 858.86,499.09 860.61,501.25 860.70,504.26 862.37,507.14 861.78,509.85 860.48,512.43 860.63,514.97 862.86,517.35 862.61,520.01 864.91,520.94 866.25,523.63 867.94,526.18 868.27,529.36 868.54,532.73 868.80,535.24 867.65,536.52 865.96,537.01 865.11,540.48 864.70,542.01 864.61,543.77 862.61,546.32 861.93,546.82 861.70,548.02 862.60,549.07 864.22,548.66 865.03,550.15 864.84,551.67 863.15,551.99 864.34,553.55 865.66,553.82 866.85,555.46 866.58,557.00 867.35,558.23 866.46,559.92 866.49,561.08 867.54,561.62 867.72,562.37 867.62,563.78 866.68,563.96 866.35,565.56 865.06,566.05 863.88,569.96 862.65,572.34 866.03,572.84 869.96,574.23 874.06,575.54 875.81,578.17 880.08,578.49 883.26,581.82 886.37,587.39 887.43,592.11 889.08,592.37 889.71,595.08 889.14,596.53 891.95,603.41 894.74,605.29 895.74,606.76 897.80,608.24 900.17,607.91 901.63,607.89 902.89,609.39 904.17,611.13 905.61,613.54 906.01,614.61 905.57,615.48 905.90,616.83 906.18,618.02 904.92,618.92 905.43,622.03 907.03,623.89 907.03,625.50 906.61,626.76 910.23,629.23 914.08,631.28 920.00,637.48 918.66,640.03 914.44,649.98 900.23,670.60 879.63,701.06 843.09,698.82 841.25,713.35 839.84,713.27 841.28,698.78 835.87,698.51 834.25,699.94 832.48,701.30 830.15,701.26 826.76,700.53 823.81,700.56 819.99,700.37 817.07,700.00 815.58,700.32 813.44,699.52 811.32,699.04 809.69,698.85 808.38,698.93 806.65,699.21 805.55,698.34 804.86,698.02 804.06,698.54 803.05,698.39 802.41,697.66 801.96,696.28 800.81,695.65 799.54,695.39 796.73,695.34 793.54,695.53 791.81,696.12 789.81,695.70 784.93,694.40 782.78,694.14 780.26,693.79 775.27,692.11 774.08,691.90 766.16,691.04 700.76,683.93 700.46,687.69 681.18,685.40 641.84,749.24 628.91,741.50 664.71,683.43 615.15,677.65 576.35,741.83 563.65,734.44 599.32,675.78 343.47,645.88 345.36,623.74 374.41,626.89 374.14,616.51 376.04,604.19 381.69,599.74 387.09,596.99 390.67,595.21 393.32,594.18 395.73,592.82 401.28,589.94 405.07,588.14 407.77,586.81 411.12,585.26 415.57,582.72 416.57,582.12 427.86,579.45 429.31,575.82 429.07,574.99 427.51,575.29 426.03,570.14 367.34,591.17 369.54,597.06 368.33,597.61 364.22,585.93 365.31,585.56 367.07,589.95 425.40,568.84 423.24,563.27 433.64,559.55 430.57,552.27 421.95,555.70 420.63,552.97 358.51,575.26 360.27,579.82 358.68,580.31 354.35,568.57 356.05,567.92 358.09,574.05 419.76,551.48 418.97,549.03 433.58,543.71 433.46,542.68 430.13,543.73 421.63,546.39 416.42,547.54 406.49,549.73 390.59,550.35 385.00,550.18 380.27,544.99 363.60,544.60 363.04,544.50 350.81,537.01 344.54,540.33 337.28,547.30 355.27,518.15 357.71,519.50 352.38,527.91 352.07,535.30 364.31,542.45 379.95,543.09 385.01,527.18 385.74,513.64 385.40,508.64 384.45,509.02 383.58,508.13 383.34,507.45 382.23,506.59 381.00,503.76 379.93,493.24 375.52,483.94 373.24,479.96 368.62,468.62 367.72,466.76 366.82,464.90 365.11,462.32 364.65,461.56 362.96,462.19 358.74,457.50 362.62,454.05 357.14,447.99 351.22,441.37 346.33,436.49 341.71,431.60 336.79,427.91 333.56,425.73 330.46,424.64 329.84,425.80 325.33,423.70 324.96,423.49 325.87,421.82 321.24,419.53 318.60,418.45 317.47,417.88 316.64,419.44 312.29,417.41 311.23,416.83 311.69,414.49 302.60,409.21 298.44,407.84 289.43,404.21 282.53,402.26 282.08,403.70 278.70,402.78 277.12,401.95 274.32,406.18 286.41,416.01 284.31,418.75 283.41,418.24 284.70,416.35 271.48,405.50 265.81,412.23 267.77,413.78 263.53,419.15 274.34,428.01 273.44,429.01 260.97,418.62 249.74,432.70 263.12,443.68 264.76,442.07 265.48,442.78 261.35,447.36 260.62,446.76 262.02,444.92 248.83,433.63 235.22,450.67 248.04,462.04 249.74,460.45 250.51,460.93 246.51,465.27 245.84,464.72 247.35,463.23 208.87,430.54 207.62,431.87 207.00,431.42 210.41,426.85 211.03,427.52 209.65,429.37 233.97,449.92 247.91,432.75 235.58,422.26 234.37,423.99 233.62,423.44 234.86,421.68 223.42,412.19 222.16,414.17 221.09,413.50 224.50,408.53 225.50,409.33 224.24,411.10 235.61,420.63 236.94,418.95 237.85,419.62 236.54,421.31 248.66,431.75 271.03,403.54 260.94,394.98 251.05,406.97 252.17,407.72 250.83,409.60 234.69,397.60 233.36,399.21 232.62,398.66 236.16,394.11 236.94,394.67 235.59,396.39 248.28,406.41 261.09,391.57 262.05,390.36 260.41,387.59 257.90,385.40 256.10,385.00 255.70,383.51 253.99,382.12 251.69,378.73 247.98,376.34 241.40,371.62 237.34,369.81 237.71,368.85 232.04,364.56 226.00,361.40 222.42,357.96 220.33,356.84 219.85,357.29 217.37,355.58 214.40,353.27 215.01,351.92 209.10,347.43 202.26,340.89 191.89,334.21 181.35,327.42 178.18,333.19 142.70,314.41 139.86,314.41 140.28,304.01 144.02,304.21 147.63,302.16 148.18,303.09 154.44,297.86 138.84,281.89 137.84,283.07 130.55,278.37 98.26,274.01 82.41,271.74 81.09,281.45 80.00,281.19 81.95,266.08 83.04,266.12 82.67,270.35 99.80,272.71 130.63,277.02 131.00,271.09 139.91,272.82 140.53,273.80 146.07,282.48 153.79,286.07 162.11,291.77 172.11,293.54 173.91,293.38 176.23,289.28 172.64,286.21 174.89,281.17 174.91,279.16 169.30,269.78 151.42,257.07 107.67,250.62 107.20,252.85 106.02,252.69 106.94,246.97 108.30,247.19 107.80,249.13 150.90,255.69 153.69,257.00 156.09,248.96 153.87,246.68 154.42,243.61 150.96,242.07 152.19,239.73 156.10,240.96 156.04,234.00 111.24,229.69 110.73,234.40 109.64,234.29 110.59,224.46 111.57,224.51 111.27,228.59 156.09,232.73 156.59,223.78 158.03,217.30 156.26,209.22 156.68,202.27 159.19,195.69 163.35,189.26 165.42,186.82 173.65,181.71 180.24,181.25 184.84,181.00 190.52,180.65 194.78,178.54 198.02,176.28 200.56,173.65 223.81,151.96 243.07,134.80 246.04,132.08 248.39,129.15 255.77,124.44 266.06,121.10 267.06,116.32 268.43,112.70 273.57,110.43 277.22,107.28 285.36,91.38 289.25,92.94 295.27,96.07 303.75,99.44 330.90,111.78 332.72,116.46 338.59,117.47 337.64,122.26 338.93,125.45 341.06,128.49 343.44,125.28 346.02,123.00 350.27,123.30 353.95,124.00 357.27,123.86 359.34,121.76 362.78,122.63 365.95,124.66 369.80,126.14 376.00,124.60 379.86,124.64 384.02,126.51 386.24,127.68 386.45,128.78 385.91,129.89 380.65,134.80 378.86,138.23 378.08,140.09 376.21,146.09 372.38,152.05 375.62,155.43 385.91,158.53 388.73,159.55 388.79,161.08 390.62,162.33 394.81,164.08 396.74,163.64 396.80,162.39 397.51,161.78 398.42,161.42 400.35,161.08 402.31,159.11 404.23,159.60 406.41,160.00 411.03,158.76 412.53,160.57 415.11,160.17 418.86,161.21 421.86,163.08 422.59,165.64 426.68,165.92 432.12,166.65 435.83,166.09 439.87,166.64 441.71,167.59 444.03,167.42 445.43,168.81 447.10,169.80 448.52,170.37 449.60,171.63 449.43,173.50 447.88,175.80 447.82,179.29 450.59,180.34 459.79,180.50 464.79,178.73 470.77,175.85 479.64,177.45 482.06,181.62 481.26,186.27 481.15,188.99 481.09,193.01 486.01,191.57 488.92,191.92 495.19,192.79 498.75,195.01 498.85,197.50 502.95,198.70 506.75,197.64 509.00,196.45 511.02,196.60 512.74,197.79 514.00,199.21 515.75,199.78 517.66,200.50 518.17,202.22 519.35,203.65 520.38,205.17 520.03,206.95 518.53,208.24 521.49,207.58 523.56,207.97 525.16,208.76 525.71,210.02 524.91,211.26 524.20,212.71 526.28,211.80 528.05,212.11 530.48,212.25 532.57,210.80 536.12,209.88 538.83,209.88 540.45,211.60 541.78,212.47 542.42,213.21 547.43,215.93 552.75,223.47 560.33,228.28 566.03,231.81 574.50,238.65 584.38,246.15 590.16,249.94 597.05,256.31 599.19,259.11 603.88,264.37 620.22,273.61 637.91,291.44 643.26,295.72 651.82,304.18 657.06,308.04 659.41,310.96 664.30,315.65 672.01,322.39 676.53,327.05 678.47,328.33 680.42,330.48 682.30,332.96 683.61,334.40 684.87,336.01 688.26,336.56 691.44,340.27 692.99,347.76 693.21,350.50 694.31,352.01 695.10,353.42 695.28,354.83 695.79,359.28 695.90,362.82 695.33,365.47 694.69,367.29 693.26,368.89 690.82,370.78 688.15,372.28 687.63,374.72 688.94,377.90 691.70,390.59 693.85,393.76 695.94,393.77 698.16,395.61 698.94,397.77 698.78,402.67 698.63,406.91 697.29,408.73 694.85,410.23 693.37,410.40 692.23,410.51 691.74,411.14 691.57,411.66 691.72,412.54 693.26,413.12 695.14,412.55 698.88,411.91 703.25,412.73 707.08,414.27 711.27,415.90 713.55,417.31 715.11,419.14 716.08,421.13 715.40,424.18 714.03,426.61 712.57,429.16 711.14,430.28 710.10,430.34 708.45,432.16 707.16,431.95 706.42,432.81 705.31,431.98 704.48,433.13 705.08,438.96 706.61,441.50 706.97,447.66 707.90,447.18 709.90,447.87 711.56,449.96 713.06,451.05 714.22,452.17 716.72,454.38 718.61,456.10 719.01,457.16 719.11,458.65 718.78,459.37 717.02,461.82 716.09,462.28 714.65,461.99 717.27,464.67 718.72,467.07 719.05,471.72 720.82,472.43 723.96,471.00 729.96,465.88 733.54,463.64" fill="#43c9bd20" stroke="#54dfc5" stroke-width="2"/><polygon points="338.47,125.92 341.21,126.75 345.32,125.10 345.32,123.73 349.44,122.77 351.22,123.87 354.78,123.59 358.08,122.77 359.99,120.99 361.78,122.08 363.70,122.50 365.89,123.73 368.91,122.91 373.19,122.87 378.36,124.16 382.86,130.07 381.94,132.56 374.46,139.72 373.66,143.69 373.45,144.47 371.12,146.82 370.50,147.24 366.90,151.76 367.45,152.82 382.21,158.00 391.97,160.31 410.10,161.86 411.85,162.00 418.90,166.09 428.43,169.29 440.78,169.11 447.58,171.72 446.07,176.08 446.37,177.00 446.90,177.69 450.66,181.62 466.42,177.74 475.51,178.75 477.89,180.74 477.71,181.94 480.08,190.06 489.30,195.86 496.10,199.45 500.52,198.34 506.05,198.34 522.27,211.61 527.06,216.03 530.75,214.92 532.59,212.71 537.01,212.71 541.44,215.29 545.86,221.19 550.65,224.14 559.50,230.04 565.40,236.30 569.09,238.88 573.51,244.04 581.44,244.66 587.65,244.21 592.75,245.99 599.55,257.76 602.96,263.26 628.45,287.98 637.70,290.24 640.50,292.54 641.76,293.58 643.48,294.98 651.11,304.87 652.77,306.95 657.56,310.76 661.62,315.92 673.05,326.98 678.21,330.29 685.58,338.77 688.53,342.09 687.79,349.09 696.50,407.51 693.21,407.28 690.60,408.94 688.91,413.60 694.94,436.40 698.01,434.78 694.31,418.86 695.40,416.23 701.35,414.25 710.97,417.20 714.41,421.77 702.35,434.83 705.60,443.60 704.28,447.38 693.92,452.60 692.75,452.78 687.32,450.52 686.72,449.78 685.29,447.71 684.67,444.57 685.45,437.74 677.61,419.32 679.73,406.77 677.81,401.28 663.65,406.63 663.02,411.29 665.38,423.76 662.72,431.83 649.24,438.19 649.57,444.99 647.71,450.89 653.64,466.91 655.09,468.11 656.77,468.62 661.69,466.54 663.05,466.40 669.21,469.86 676.55,467.23 678.99,459.15 707.59,449.74 715.69,459.50 719.19,478.13 726.76,475.80 736.65,468.23 738.40,462.41 724.22,439.12 723.41,432.75 731.14,413.00 726.73,394.31 731.12,389.00 733.01,388.86 756.57,398.69 763.19,399.52 764.58,399.80 775.85,400.88 781.73,400.69 783.14,400.78 814.65,404.41 829.95,407.50 839.71,412.16 865.81,440.17 868.19,445.75 835.20,481.57 845.74,485.54 851.56,492.74 852.09,493.84 858.71,503.95 859.22,505.29 859.47,506.35 857.54,514.66 866.21,534.18 859.91,550.19 865.13,559.47 864.67,562.15 843.95,573.92 849.88,576.04 868.92,576.18 880.04,581.48 886.99,594.73 885.88,598.74 885.76,599.67 889.41,606.96 903.79,613.10 904.83,621.36 904.18,625.42 917.75,644.48 917.38,648.45 917.33,649.09 916.46,650.98 914.80,652.78 901.60,669.26 879.09,668.91 878.35,673.03 880.56,673.62 880.41,675.39 872.76,674.80 872.91,672.59 874.82,672.00 874.67,669.36 856.14,669.95 846.43,673.18 841.87,674.07 839.07,679.80 836.72,696.43 836.87,701.29 771.54,695.41 770.66,694.08 726.67,688.79 700.92,685.11 699.15,688.79 680.76,686.73 640.75,750.00 627.94,742.96 626.33,739.70 658.69,686.59 630.53,683.69 613.82,681.08 573.95,744.41 561.15,737.06 559.53,734.70 594.25,678.94 578.82,676.65 575.98,686.00 557.35,683.09 509.61,680.76 501.45,675.52 498.09,669.17 488.06,666.21 486.32,673.19 477.00,672.61 462.45,672.61 445.99,668.95 436.25,670.87 427.51,667.96 421.11,662.72 419.88,658.67 404.80,655.15 396.53,655.17 396.07,634.19 391.99,626.04 392.57,619.05 384.42,613.23 380.93,601.59 387.29,601.72 389.44,600.23 393.74,599.24 399.53,594.17 405.91,591.63 408.80,591.71 410.71,590.05 414.03,581.24 417.72,580.21 419.89,579.65 422.94,579.17 424.79,578.77 428.93,577.87 430.16,577.55 431.24,577.09 430.65,576.23 430.32,575.32 423.86,577.31 419.09,565.29 429.21,559.84 427.65,557.51 415.98,559.84 414.03,552.84 408.47,555.50 387.99,558.10 377.59,546.73 383.11,527.55 383.11,518.13 361.09,465.20 357.72,458.68 348.95,449.46 344.90,441.36 332.98,429.90 322.19,425.63 317.24,423.60 308.69,417.31 287.56,406.52 276.76,406.29 266.87,424.51 260.80,420.91 249.11,435.53 229.99,423.61 233.82,416.19 247.08,429.01 269.12,401.80 263.72,396.85 251.80,411.47 247.76,410.57 245.73,407.19 247.31,404.95 259.67,390.78 249.78,381.33 236.06,371.67 222.34,362.45 216.49,357.07 214.02,354.80 214.02,352.56 208.63,348.73 184.11,330.07 182.09,334.34 177.82,334.34 137.12,312.54 138.69,302.87 144.54,301.52 147.24,299.27 148.36,298.37 135.99,286.90 132.02,278.84 129.92,280.38 129.85,278.51 128.49,278.33 126.92,278.05 125.56,277.87 124.27,277.68 123.13,277.54 122.14,277.41 118.93,276.81 117.62,276.48 116.70,277.27 115.47,278.28 115.17,277.31 115.29,276.16 115.50,274.91 115.82,273.76 116.07,273.21 117.30,273.07 117.50,274.18 118.50,274.68 119.14,274.78 120.60,274.96 122.63,275.19 123.43,275.33 125.10,275.56 127.03,275.74 128.07,275.79 129.75,275.94 129.47,268.46 138.01,268.01 150.16,281.28 171.52,291.85 173.32,289.37 170.62,286.45 172.87,279.93 166.35,270.26 151.36,259.10 108.33,251.83 104.51,252.28 103.83,249.35 105.86,245.75 151.73,253.17 152.85,247.10 152.40,245.30 148.80,242.60 149.03,241.03 152.40,241.25 150.15,240.13 150.38,237.88 153.53,238.56 146.56,233.38 147.23,230.91 152.63,233.61 153.53,231.36 154.20,224.61 156.90,218.77 151.50,218.09 151.28,214.95 154.87,214.72 154.42,203.70 158.25,201.68 159.14,189.31 171.51,180.54 181.85,179.87 189.68,179.07 197.79,171.22 242.93,133.45 252.30,126.07 254.83,123.46 262.92,120.04 266.35,116.47 267.58,113.86 270.19,112.49 275.53,104.68 278.69,97.82 281.70,94.53 288.28,94.39 291.99,93.98 295.00,94.94 296.37,97.27 300.35,97.68 303.78,99.60 308.85,102.62 312.69,104.40 320.37,107.42 328.60,111.26 333.12,115.09 337.92,118.25 337.51,120.58 337.51,124.55 338.47,125.92" fill="none" stroke="#ffc673" stroke-width="1.5" stroke-dasharray="6 3"/><text x="60" y="795" fill="#54dfc5" font-family="sans-serif" font-size="14">OSM way 1385212852 · límite operativo seleccionado</text><text x="60" y="819" fill="#ffc673" font-family="sans-serif" font-size="14">ArcGIS Barrios de Cartagena (2022) · contraste no certificado</text></svg>